<?xml version="1.0" encoding="utf-8"?>
<!-- Generator: Adobe Illustrator 21.1.0, SVG Export Plug-In . SVG Version: 6.00 Build 0)  -->
<svg version="1.1" id="Calque_1" xmlns="http://www.w3.org/2000/svg" xmlns:xlink="http://www.w3.org/1999/xlink" x="0px" y="0px"
	 viewBox="0 0 484.6 485.5" style="enable-background:new 0 0 484.6 485.5;" xml:space="preserve">
<style type="text/css">
	.st0{fill:url(#SVGID_1_);stroke:#000000;stroke-width:0.8;}
	.st1{fill:url(#SVGID_2_);stroke:#000000;stroke-width:0.8;}
	.st2{fill:#4B4B4D;}
	.st3{fill:none;stroke:#96BD0D;stroke-width:2;stroke-linecap:round;stroke-linejoin:round;}
	.st4{fill:url(#SVGID_3_);stroke:#1A171B;stroke-width:0.8;}
	.st5{fill:none;stroke:#1A171B;stroke-width:0.5198;}
	.st6{fill:none;stroke:#1A171B;stroke-width:0.8;}
	.st7{fill:none;stroke:#1A171B;}
	.st8{fill:#E6E6E6;stroke:#1A171B;stroke-width:1.2;stroke-miterlimit:10;}
	.st9{fill:#FFFFFF;stroke:#1A171B;stroke-width:0.8;stroke-miterlimit:10;}
	.st10{fill:none;stroke:#1A171B;stroke-width:0.8;stroke-miterlimit:10;}
	.st11{fill:none;stroke:#1A171B;stroke-width:0.5;stroke-miterlimit:10;}
	.st12{fill:none;stroke:#1A171B;stroke-width:0.2;stroke-miterlimit:10;}
	.st13{fill:url(#SVGID_4_);stroke:#000000;stroke-width:0.8;}
	.st14{fill:url(#SVGID_5_);stroke:#000000;stroke-width:0.8;}
	.st15{fill:none;stroke:#808080;stroke-width:0.8;}
	.st16{fill:none;stroke:#B3B3B3;stroke-width:0.8;}
	.st17{fill:#FFFFFF;stroke:#1A171B;stroke-width:0.8;}
	.st18{fill:none;}
	.st19{fill:none;stroke:#1A171B;stroke-width:0.5;}
	.st20{fill:#737373;stroke:#000000;stroke-width:0.8;}
	.st21{fill:none;stroke:#96BD0D;stroke-width:2;stroke-linecap:round;stroke-linejoin:round;stroke-dasharray:1,5,4,5,7,5;}
	.st22{fill:#FFFFFF;stroke:#B0B2B3;stroke-width:1.6;stroke-linecap:round;stroke-linejoin:round;stroke-miterlimit:10;}
	.st23{fill:#B0B2B3;stroke:#B0B2B3;stroke-width:0.8;stroke-miterlimit:10;}
	.st24{fill:none;stroke:#B0B2B3;stroke-width:1.4;stroke-miterlimit:10;}
	.st25{fill:none;stroke:#1A171B;stroke-width:1.2;}
	.st26{fill:url(#SVGID_6_);}
	.st27{fill:#D8D9DA;stroke:#1A171B;stroke-width:1.1883;stroke-miterlimit:10;}
	.st28{fill:none;stroke:#000000;stroke-width:0.9534;stroke-miterlimit:10;}
	.st29{fill:none;stroke:#000000;stroke-width:0.7537;stroke-miterlimit:10;}
	.st30{font-family:'HelveticaNeueLTPro-Lt';}
	.st31{font-size:15px;}
</style>
<linearGradient id="SVGID_1_" gradientUnits="userSpaceOnUse" x1="227.2442" y1="56.8871" x2="231.6978" y2="59.1139" gradientTransform="matrix(1 0 0 -1 0 485.89)">
	<stop  offset="6.777970e-03" style="stop-color:#009DDF"/>
	<stop  offset="1" style="stop-color:#82CFEF"/>
</linearGradient>
<path class="st0" d="M262.9,470.1c-29-11.4-35-33-39.5-57.8c-3.7-20.2-13.7-30.9-13.8-31l5.2-5c0.5,0.5,11.7,12.4,15.7,34.7
	c4.3,23.5,9.5,42.3,35.1,52.4L262.9,470.1z"/>
<linearGradient id="SVGID_2_" gradientUnits="userSpaceOnUse" x1="144.1262" y1="335.7794" x2="141.1683" y2="336.4957" gradientTransform="matrix(1 0 0 -1 0 485.89)">
	<stop  offset="6.777970e-03" style="stop-color:#009DDF"/>
	<stop  offset="1" style="stop-color:#82CFEF"/>
</linearGradient>
<path class="st1" d="M145.8,95.3c-2.7,21.7-14.2,93.3-18.9,107.1l6.6,1.8c5-17.8,16.5-88,19.1-108.7"/>
<g>
	<g>
		<path class="st2" d="M235.9,378.6c4.3-14.7-0.5-32.1-7.1-45.5c-0.7-1.4-4.5-0.2-3.9,1c6.5,13.2,11.3,30.3,7.1,44.9
			C231.6,380.5,235.5,380,235.9,378.6L235.9,378.6z"/>
	</g>
</g>
<g>
	<g>
		<path class="st2" d="M226.4,344.6c0.5-2.6,1.2-5.3,1.2-8c0-2.2-0.6-4.3-1.1-6.5c-1.2,0.4-2.5,0.8-3.7,1.3
			c4.2,3.2,8.7,5.8,12.1,9.9c0.8,1,4.5-0.4,3.6-1.5c-3.4-4.1-8-6.7-12.1-9.9c-0.8-0.6-4.1-0.2-3.7,1.3c0.5,2,1.1,4.1,1.1,6.2
			c0,2.6-0.7,5.2-1.2,7.8C222.2,346.5,226.1,345.9,226.4,344.6L226.4,344.6z"/>
	</g>
</g>
<polyline class="st3" points="137.4,338.8 130.7,343.8 132.1,335.5 "/>
<linearGradient id="SVGID_3_" gradientUnits="userSpaceOnUse" x1="130.7357" y1="562.9463" x2="183.1908" y2="562.9463" gradientTransform="matrix(0.9618 -0.2738 -0.2738 -0.9618 202.0741 959.1139)">
	<stop  offset="0" style="stop-color:#FFFFFF"/>
	<stop  offset="1" style="stop-color:#FAFAFA"/>
</linearGradient>
<path class="st4" d="M185.4,413.3c0,0,0.1-8.3-0.6-10.7c-0.8-2.4-3.6-8.6-3.6-8.6s-5.4-5.8-6.9-10.5c-1.6-4.6-2.1-6.7-2.2-9.2
	c-0.2-2.5-0.4-5-0.8-7c-0.4-2.1-0.4-3.1-0.1-5.8c0.3-2.7,0.3-7.4,0.6-8.9c0.3-1.4-0.2-2.4,0.2-4.1s1.3-3.1,3.2-3.7s3-0.9,3-0.9
	s1.8-1.7,2.5-2.2s1.7-1.3,2-0.8c0,0,0.9-0.1,1.8,0.5c0,0,0.3-0.5,0.7-1l6.6-5.8c0.5-0.4,1-0.7,1.3-0.9c1.4-0.9,3.6-2.5,4.4-2.7
	c0.8-0.2,1.6-0.2,2.5-0.4c0.9-0.1,1.4,0.4,2.3,0.8c0.9,0.5,2,1.2,2.7,2.6c0.8,1.4,2.4,4.3,3.1,6c0.7,1.6,1.2,2.8,1.4,3.2
	c0.2,0.4,1.1,2.2,1.4,2.7c0.3,0.5,1.2,1.7,1.4,2.4c0,0,1,1.2,1.6,1.5s2.8,0.9,4,1.9c1.3,1,3.3,3.2,3.2,5.4c-0.1,2.2-0.7,4-0.6,4.4
	c0,0,1,1.1,1.4,2.5c0.3,1.4,0.4,2.7,0,4.5c-0.5,1.8-0.2,2.8-0.4,3.6c-0.1,0.8-0.8,2.5-0.8,3.7c-0.1,1.2-0.5,7.1-0.6,8.2
	s-0.1,5.2-0.4,7.5c-0.2,2.3-1.1,5.5-1.4,6.6c-0.3,1.1-0.4,14.1-0.1,15.2"/>
<path class="st5" d="M212.1,348.4c0,0,0.2,0.7,0.3,1.1"/>
<path class="st6" d="M178.9,345.4c0,0,1-0.7,2.3-1.2s3.5-1,2.6-2.1"/>
<path class="st6" d="M196.9,347.9c-5.3,1.6-8.1,6.6-7.4,5.3c0,0-2.3,0.7-3.5,3.1c0,0-0.5-1.4-1.3-2.5c-0.8-1.2-1.7-2.2-2-2.7
	s-0.4-1.9-0.2-3s0.8-2.8,0.9-3.3c0.1-0.5,0.6-2.2,1-3.3"/>
<path class="st7" d="M195.7,339c-0.6,0.8-1.5,2.3-1.5,2.3s-2.3,5.1-1.9,8.8"/>
<path class="st8" d="M68.4,372.6c0,0-2.1,2-4.2,6.6s-3.8,9.1-3.8,11.6s1.5,4.1,2.2,4.1c0,0,1.4,3.4,5.7,6.3
	c4.3,2.9,11.6,6.6,20.4,6.7s16.8-0.7,24.3-3.4c7.5-2.7,8.4-5.2,7.4-9.9c-1-4.7-2.2-8.4-7.4-13.4c0,0-2.4-5.7-7.6-10.9
	c-5.1-5.2-9.8-8.2-13.8-9.2s-8.4-0.7-10.6-0.8c-2.2-0.1-3.7-0.2-5.5,0.8s-2.4,1.3-3.4,1.6c-1,0.3-3.6,1.9-4.5,4.5
	C66.7,369.7,68,372.3,68.4,372.6z"/>
<path class="st9" d="M60.5,391.7c0,0-1.7,1.3-5.7,4.4c-4,3.2-26.3,22-26.3,22s-2.9-3.4-5.7-5.5c0,0,10.2-9.4,19.9-17
	s11.7-9.2,13.8-10.8c2.1-1.5,4.7-3.7,6.8-3.7c0,0-0.9,1.9-1.5,3.7c-0.6,1.8-1.1,3.2-1.2,4.3c-0.1,1.1-0.2,1.5-0.1,1.8
	C60.5,391.3,60.5,391.7,60.5,391.7z"/>
<path class="st10" d="M4.5,419.2c0,0,8.1-2.3,12.4,0c0,0-0.3,1.3,0.2,1.6c0,0,3,1.6,6.1,3.7c3,2.1,4,3.7,6.3,5s4.8,1.9,4.8,1.9
	s-0.5-1.6-1-2.4c0,0,0.8-0.2,0.7-1.2c-0.1-1.1-0.9-1.5-1.7-3.1c-0.9-1.6-1.4-4-3.7-6.4c-2.3-2.5-3.8-4-5.2-5.1
	c-1.4-1.1-1.9-2.5-5.2-3.9s-8.2-3.9-18-0.9"/>
<path class="st9" d="M17.1,420.8c0,0,3,1.6,6.1,3.7c3,2.1,4,3.7,6.3,5s4.8,1.9,4.8,1.9s1,0.4,3.2,0.2c2.2-0.2,3.9-0.7,4.9-0.8
	c1-0.1,2.4-0.8,2.4-0.8s-0.1-0.6,0.5-1.6c0.5-0.9,0.9-2.1,2.2-3.9s18.1-22,18.8-22.9s1-1,1-1s0.4-0.8,0.6-2.3s0.8-2.4,0.8-3.7
	c0-1.3,0-2.3-0.3-3.6c0,0,0.5-1.9,2.7-2.9c2.3-1,4.9-1.2,4.9-1.2s1.2,2.3,1,6.4s-1.7,9.5-4.2,13.2s-17.7,24.3-18.7,25.7
	c-1,1.3-2.8,3.2-3.6,2.7c0,0-1.9,1.7-4.8,3.1c-2.9,1.4-10.4,3.9-16.1,1.8s-9-5.6-11-8.3c-1.9-2.7-2.6-6-2.3-8
	C16.7,421.3,17.1,420.8,17.1,420.8z"/>
<path class="st11" d="M16.9,419.2c0,0,4.3,1.9,7.4,4.5c3.1,2.7,5.5,4.6,6.8,6.6"/>
<path class="st11" d="M33.3,429c0,0-2.7-2.9-5.7-5.2c-3-2.3-10-10.3-23.8-5.7"/>
<path class="st11" d="M3.5,416.6c0,0,6-2.3,12.5-1s14.3,7.5,17.9,11.8"/>
<path class="st10" d="M21.7,442.8c2.4-1.7,4-5,4-5s4.6,2.8,8.1,2.7c0,0-1,8.6-8.2,13.8"/>
<path class="st11" d="M32.7,440.5c0,0-1.9,8.7-7.7,12.8"/>
<path class="st10" d="M62.7,394.9c0,0-1.1-2,1.1-7.4c2.2-5.4,5.1-8.5,8.3-12.3s5.4-3.9,8-3.2c2.6,0.7,5.4,2.1,10.2,2.5
	c4.7,0.4,8.8,0.3,12.3,1.1c3.5,0.8,7.6,2.7,10.4,5.5"/>
<path class="st10" d="M99.2,375.2c0,0,0.4,0.9,0.7,1.5c0.3,0.6,0.2,1.1,0,1.3c0,0-0.3,0.9-0.1,1.3c0.2,0.3,0.3,0.8,1.5,1
	s6.5,1.3,10.5,5.1c4,3.8,4.6,7,5.8,7.6c1.3,0.6,2-0.8,2.1-1.4"/>
<path class="st11" d="M68.4,372.6l0.9-0.7L70,373c0,0-1.7,1.3-3.5,4.9s-7.2,13.6-4.1,16.6"/>
<line class="st10" x1="68.5" y1="374.6" x2="70.2" y2="377.4"/>
<path class="st10" d="M77.4,376.5c0,0,2.8,0.2,4.2,1.5c1.4,1.3,2.3,3,4.1,3.2c1.8,0.2,8.3,0.5,10.1,0.6c1.7,0.1,1.7-0.2,2.1-0.9
	c0.4-0.7,0.8-2.5,2-2.7"/>
<path class="st10" d="M76,386.9c0,0,4.3-0.1,3.6,4.2c-0.7,4.3-2.9,5-2.9,5"/>
<path class="st10" d="M68.4,391c0,0-0.7,1.7,0.3,2.8"/>
<path class="st10" d="M69.3,371.9c0,0,0.1-2.3,1.4-4.4c1.2-2,1.9-2.4,2.9-3.4c0.9-0.9,1.3-0.9,3-0.6c1.7,0.2,4.3,0.5,9,0.6
	c4.8,0.1,8.9,0.6,10.6,1.4s5.8,3,8.3,5.7s4.9,5.9,5.8,7.8"/>
<path class="st10" d="M95.4,374.9c0,0,2.9-2.1,3.6-2.3c0.7-0.2,2.1,0.3,4.2,1.5s4.4,1.3,5.2,3.8"/>
<path class="st12" d="M74.6,365.9c0,0,0.8-0.9,1.8-0.7c1,0.2,6.6,0.6,10.9,0.7c4.4,0.1,6.2,0.1,7.6,0.5"/>
<path class="st11" d="M94.6,367c0,0-0.9,0.4-2.2,1.6c-1.2,1.2-5.8,5.4-5.8,5.4"/>
<path class="st11" d="M65.5,385.8c0,0,2.1-5.1,6.8-9c4.7-4,4.8-4.1,7.6-3.5c2.7,0.6,4.4,0.9,5.3,2.3c0.9,1.5,1.7,2.5,3.5,2.7
	s6.9,0.3,8,0.4s1.3-0.2,2.5-1.4"/>
<ellipse transform="matrix(0.5363 -0.844 0.844 0.5363 -283.5038 262.862)" class="st10" cx="97.5" cy="389.5" rx="1.3" ry="1"/>
<path class="st10" d="M116,399.9c-1.3,1.2-3.2,1.2-4.1,0.1s-0.6-2.9,0.8-4s3.2-1.2,4.1-0.1C117.7,396.9,117.3,398.7,116,399.9z"/>
<path class="st12" d="M66.9,390.6c0,0,1.3-2.8,4.1-4.1c2.8-1.2,5.8-3,8.2-2c2.4,0.9,3.6,3.4,3.2,6.2c-0.4,2.8-3.3,8-6.3,8.3"/>
<path class="st11" d="M74.8,402.9c0,0,2.6,1.4,5.7,2.2c3.1,0.8,6.9,2.1,8-0.8c1-2.9,5-11.6,6.9-14.3c1.9-2.7,2.2-2.6,3.3-2.1
	c1.1,0.5,2.5,1,3.8,1.6c1.2,0.5,1.7,1.2,1.2,3.5c-0.5,2.4-1.9,7.6-1.6,10.2s0.9,2.7,3.3,2.2c2.3-0.5,7.3-1.4,10.8-3.4
	c3.4-2,3.4-3.4,3.3-5.3"/>
<path class="st12" d="M75.6,400.8c0,0,5.1,2,7.4,2.3s2.4-0.6,3.1-2.7c0.7-2,4.4-9.8,7.2-14c2.8-4.2,3.2-4.7,3.2-4.7"/>
<path class="st12" d="M97.7,381.1c0,0,2.2,0.2,4.7,1.5c2.6,1.3,4.7,1.4,3.4,6.7c-1.3,5.3-1.9,9.3-2.1,11.6c-0.2,2.3,0,2.9,1.1,2.7"
	/>
<path class="st12" d="M98.1,380.2c0,0,6.8,1.1,10.2,4.2c3.4,3.1,5.3,6,4.6,6.9c-0.7,0.9-4.8,5.1-5.9,10.5"/>
<path class="st12" d="M78,376.5c0,0-0.7-0.2-3.4,2.2c-2.7,2.3-8.1,8.8-9.4,11.8c-1.2,3-1,4.3,0.5,6.3"/>
<path class="st10" d="M80.9,368.6c0,0-1.2,1.8,3,4.6"/>
<ellipse transform="matrix(0.6306 -0.7761 0.7761 0.6306 -288.7518 201.0452)" class="st10" cx="66.8" cy="403.9" rx="1.3" ry="0.9"/>
<path class="st9" d="M64.6,418.2c0,0,0.7,1.6-1.2,4c-1.9,2.4-6.1,8-7.4,9.6c-1.3,1.6-2.3,0.8-2.3,0.8l0.3-0.4
	c0.6,0.3-0.5-1.8-3.4-4.1c-3.2-2.5-4.1-2.3-4.1-2.3l-0.1,0.2c0,0-1-0.9-0.2-2.3c0.9-1.4,4.7-6.2,6.8-8.7s3.7-2.9,4.3-2.6
	c0,0,1.3,0.4,3.9,2.3C63.8,416.7,64.6,418.2,64.6,418.2z"/>
<path class="st10" d="M44.8,430c0,0-0.1,0.3,1.8,1.6c1.9,1.3,2.6,2.2,3.5,1.2s1.6-2.2,1.6-2.2s-0.1-0.9,0.2-1.4"/>
<path class="st10" d="M50.5,434.8c0,0,1.8-1.8,3-4.1"/>
<path class="st10" d="M66.6,401.2c0,0,1-1.3,2.5-0.4s2,1.4,2.4,1.6c0.3,0.3,0.1,1.2-1.2,2.8c-1.3,1.7-1.5,1.9-1.6,2.1
	s-0.1,0.5,0.7,1.1c0.7,0.6,0.9,1.7,0.9,1.7"/>
<path class="st10" d="M69.4,406.4c0,0,2.4,1.7,3.6-0.2"/>
<ellipse transform="matrix(0.4686 -0.8834 0.8834 0.4686 -314.6927 274.6903)" class="st10" cx="71" cy="398.9" rx="1.1" ry="0.9"/>
<path class="st12" d="M25,414.5c0,0,4.4-3.3,13.1-10.1c8.7-6.8,20.5-20,23.7-19.5"/>
<path class="st12" d="M19.8,422.3c0,0-0.6,6.6,7.3,10.4c8,3.9,15.4,0,15.4,0"/>
<path class="st12" d="M45.1,434.8c0,0-9.8,5.5-19.1,0.5c-9.2-4.9-8.8-11.1-8.5-14.3"/>
<linearGradient id="SVGID_4_" gradientUnits="userSpaceOnUse" x1="114.9964" y1="195.0902" x2="111.9553" y2="196.0259" gradientTransform="matrix(1 0 0 -1 0 485.89)">
	<stop  offset="6.777970e-03" style="stop-color:#009DDF"/>
	<stop  offset="1" style="stop-color:#82CFEF"/>
</linearGradient>
<path class="st13" d="M88.7,374.4c6.2-11.7,20.4-49.2,47.3-169.2l-7.3-1.6c-28.5,127.5-42.5,160.1-46.8,167.9c0,0,0.7,0.8,1.1,1.1
	c0.4,0.3,0.7,0.5,0.7,0.5s0.5,0.3,1.2,0.5c0.6,0.2,1.5,0.4,2.1,0.5C87.5,374.2,88.7,374.4,88.7,374.4z"/>
<linearGradient id="SVGID_5_" gradientUnits="userSpaceOnUse" x1="141.4625" y1="132.9905" x2="138.8891" y2="134.8621" gradientTransform="matrix(1 0 0 -1 0 485.89)">
	<stop  offset="6.777970e-03" style="stop-color:#009DDF"/>
	<stop  offset="1" style="stop-color:#82CFEF"/>
</linearGradient>
<path class="st14" d="M193.7,342.6c-5.7-7.6-12.6-11.7-20.7-12.3c-19.1-1.4-37.7,18.1-45.7,29.8c-8.2,12-13.3,17.6-15.6,19.8
	c0,0,1.6,1.4,2.4,2.2c0.8,0.9,1.2,1.3,1.6,1.8s1.1,1.4,1.1,1.4c2.7-2.6,8.1-8.6,16.7-21.1c7.7-11.2,24.5-27.6,39-26.6
	c7.1,0.5,13.3,5.2,18.3,14c0,0,0.6-0.6,0.9-1c0.3-0.3,0.6-0.6,0.6-0.6s-0.1-1.4,0-2.5c0.1-1,0.4-2.2,0.7-3.2
	C193.3,343.6,193.7,342.6,193.7,342.6z"/>
<path class="st15" d="M46.1,260.2c0,0,26.9-2.8,41.4,0.6s35.7,9.4,47.5,4.3"/>
<path class="st16" d="M61.7,263.6c0,0,12.3-1.5,23.2,1.7"/>
<path class="st16" d="M106.5,269.9c0,0,15.2,3.4,24.5-0.6"/>
<path class="st17" d="M53.1,254.5c16.5-0.8,30.7-1.3,30.7-1.3c0.6,0.9,3.3,1.7,5.1,2.1c1.8,0.4,7.7,2.4,7.7,2.4
	c4.5,1.8,9.8,1.6,9.8,1.6c1.2,0.5,7.6,0.2,8.8,0.1l0.8-3.4c1.2,1.1,2.7,1.3,3.7,1.8c1.2,0.6,3.3,1.9,5.1,2.5c1.9,0.5,4.2,0.6,5,0.3
	c0.8-0.3,2.6-0.8,3.6-1.2c1-0.4,2.4-1.7,2.8-3.6c0.4-2-1.6-3.9-1.6-3.9l0,0c1.3,0,2.3-0.3,3-0.2c0.9,0.2,5-0.1,5.5-1.6
	s2.6-4.8,0-7.4h0.1c2.6-0.1,4.2-0.9,4.9-1.4c1.1-0.7,1.8-2.8,2.3-4.7s-0.2-3.1-0.7-4.4c-0.5-1.3-2.1-2.4-2.1-2.4h0.1
	c0.6-0.2,1-0.4,1.4-0.6c1.1-0.7,3.7-1,5.1-1.4c1.4-0.5,2.6-1.7,3.1-3c0.5-1.4,0.7-3.9,0.5-5c-0.1-1.1-2-2.8-2.9-3.7
	c-0.9-0.8-1.4-1.3-3.2-2.2s-4.5-1.7-4.5-1.7l0,0c1.5-0.5,2.8-1,3.4-1.2c1.5-0.7,4.9-2.2,6.3-4c1.4-1.7,2.3-3.7,2.2-5.7
	c-0.1-2.1-3-3.7-3-3.7H156c-0.2,0-0.6,0.1-1.3,0.3c-1.3,0.4-4.5,2.4-4.5,2.4c-1.3,0.2-10.6,0.8-10.6,0.8c-0.7-0.7-2.7,0.2-2.7,0.2
	c-1-0.8-2.2-0.3-3.3,0c-1.1,0.4-7,0.6-10.3,0.3c-3.2-0.3-6.9,2.3-6.9,2.3c-2.5-0.7-7.2,1.3-9.4,2.7c-2.2,1.4-3.7,2.6-6,4.2
	c-2.4,1.6-10.7,3.8-10.7,3.8s-22.5,2.5-31.2,3.1"/>
<path class="st18" d="M131.2,223.1l-0.9,3.5c0,0,2.1,2.1,5.7,0.3C136,226.9,132.2,226.3,131.2,223.1z"/>
<path class="st19" d="M150.1,200.1c0.1,0,1.8,0.7,1.8,0.7c1.5-0.2,3.3-1.6,3.8-2.7c0.3-0.5,0.3-0.7,0.1-0.8"/>
<path class="st19" d="M147.4,211.9c-2.3,0.8-5.1,1.7-5.5,2c-0.7,0.5-2.4,1.5-4.9,2"/>
<path class="st19" d="M143.4,216.6c0,0,3.7-2.2,8.9-1.9"/>
<path class="st19" d="M132.9,216.7c0,0-0.3-0.1-0.5-0.3c0,0-0.9,1-2.7,0.8c0,0-0.6,7-2,8c-1.4,0.9-4.8,3.4-6.5,4.9s-5.2,4.6-5.2,4.6
	"/>
<path class="st19" d="M127.3,225.5c0,0,1.9,0.6,2.8,1.2c0.9,0.6,1.6,0.9,2.2,0.9c0.5,0,1,0.1,1,0.5c0,0,0-0.8,3.3-1.1"/>
<path class="st19" d="M143.1,242.4c-1.2,0.1-2.5,0-4.1-0.2c-5.2-0.8-5.9-1.2-8.3-2.1c-2.3-0.8-4.4-1.7-6.5-3.4s-4.8-2.6-4.9-4.8"/>
<path class="st19" d="M142.9,242.4"/>
<path class="st19" d="M121.6,234.9c0,0-2.4-0.7-3.8-0.5s-3.3,0.6-4.1,2.4c-0.8,1.8-0.7,4.3,0.5,5.8s5.4,4,6.7,4.5
	c1.2,0.5,4.6,1.5,6.1,2.1c1.5,0.7,4.6,2.2,6.5,2.4c0.5,0,0.9,0,1.3,0"/>
<path class="st19" d="M114,236.1c0,0-3.5,2.3-6.2,2.6"/>
<path class="st19" d="M117.8,235.5c0,0,1.3,1,1.3,1.4c0,0-1.1,1.3-1.5,2.2s-0.9,2.4-1.1,3c0,0-1.2,0.3-1.8-0.5c-0.5-0.8-1-2.8,0-4.2
	C115.8,235.9,116.6,235.6,117.8,235.5z"/>
<path class="st19" d="M112.3,250.5c0,0,0.7,0.8,1.3,0.7c0.5-0.1,1.3-0.5,1.8-1.6s1.1-1.6,0.6-3.4c0,0-0.9-0.6-1.3-0.7
	c-0.4-0.2-1.8,0.6-2.2,1.6C112,248,111.8,249.6,112.3,250.5z"/>
<path class="st19" d="M117.3,203.2c0,0-2.6,1.8-5.7,3"/>
<line class="st19" x1="114.1" y1="242.6" x2="112.9" y2="245.2"/>
<path class="st19" d="M110.9,249.7c0,0-0.8,2.3-0.9,3.6"/>
<path class="st19" d="M113.1,240.6c0,0-1.7,3.8-2.5,6.6"/>
<line class="st19" x1="118.9" y1="232.2" x2="118.1" y2="234.3"/>
<path class="st20" d="M131.1,223.2l-0.9,3.5c0,0-0.5-0.6-2.8-1.4c0,0,0.9-0.4,1.3-2.2c0.4-1.8,0.9-6,0.9-6s1.8,0.2,2.6-0.7l0.6,0.3
	c0,0-1.5,1.1-1.9,2.2C130.5,220.2,130.2,220.8,131.1,223.2z"/>
<line class="st19" x1="129.7" y1="217.2" x2="127.3" y2="216.1"/>
<line class="st19" x1="131.4" y1="214.2" x2="132.4" y2="216.4"/>
<path class="st19" d="M134.4,251.6"/>
<path class="st19" d="M145.9,217.7c-2.1-1.4-8-2.2-10.9-1.6c-2.8,0.6-4.2,2.8-4.5,3.9c-0.2,1.1,0.4,2.9,1.2,4.1
	c0.9,1.2,2.6,1.8,4.5,2.8s5.2,2.5,7.4,2.9c1.6,0.3,3,0.1,4.1-0.2"/>
<path class="st19" d="M137.4,219c0,0,0.9,3.6-2,5.8l-2.6-0.9c0,0-3.9-4.1,1.4-6c0,0,1.2,0.1,1.7,0.2
	C136.4,218.2,137.4,219,137.4,219z"/>
<path class="st19" d="M116.5,256.3c-0.2-0.2-1.8-1.6-2-1.7c-1.2-1.4-3.3-3-3.5-4.9c-0.2-1.7,0.2-3.5,2.2-4.6
	c1.4-0.9,2.4-0.8,3.3-0.6"/>
<g>
	<g>
		<path class="st2" d="M95.1,181.7c-4.5,18.4-8.7,36.9-12.5,55.4c-0.3,1.6,2.3,4.2,2.8,1.8c3.9-18.5,8-37,12.5-55.4
			C98.4,181.9,95.7,179.4,95.1,181.7L95.1,181.7z"/>
	</g>
</g>
<g>
	<g>
		<path class="st2" d="M88.3,194.2c1.8-1.4,3.2-3.6,4.9-5.2c1.7-1.6,3.3-3.3,4.5-5.3c-0.5,0.2-0.9,0.4-1.4,0.6
			c0.4,0.2,0.8,0.1,1.2-0.1c-0.8-0.7-1.6-1.5-2.4-2.2c0.4,4.6,2.9,8.5,3.9,12.9c0.5,2.2,3.6,2.4,3-0.2c-1-4-3.5-7.7-3.8-11.9
			c-0.1-1-1.1-2.9-2.4-2.2c0.1,0,0.3,0,0.4,0c-0.5-0.2-1.1,0.2-1.4,0.6c-1.2,2.1-2.9,3.6-4.6,5.2c-1.5,1.5-2.6,3.3-4.3,4.6
			C84.6,192.2,86.7,195.5,88.3,194.2L88.3,194.2z"/>
	</g>
</g>
<path class="st21" d="M130.7,343.3c0,0,7.1-12.7,18.3-20.4c11.2-7.6,27.5-6.1,34.5,0.8"/>
<polyline class="st3" points="131.5,121 135.4,114.7 136.9,121.9 "/>
<path class="st21" d="M135.2,114.9c-2.4,14.4-4.1,33.5-10.5,62.3"/>
<rect x="99.5" y="0.8" class="st22" width="95.8" height="102.2"/>
<circle class="st23" cx="148.3" cy="47.4" r="2.5"/>
<path class="st24" d="M148.9,50.9c0,4.4-1.5,26.5,0.4,33.1c0.9,3.2-0.4,15.9-1.1,19"/>
<path class="st2" d="M139.2,30.5L139.2,30.5l-0.1-0.2c-0.1-0.2-0.3-0.2-0.2-0.2l0.2,0.2c-0.1-0.2,0-0.1,0.1-0.1
	c-0.1-0.1-0.1-0.1-0.2-0.2c-0.1,0,0,0,0,0.1c-0.1-0.1-0.3-0.1-0.4-0.2c-0.2-0.1,0.1-0.1-0.2-0.3c-1.1-0.9-2.5-1.4-3.9-1.1
	c0,0,0,0,0-0.1c-0.4,0.1-0.8,0.2-1.1,0.4c-0.1,0-0.2,0-0.2-0.1c0,0-0.4,0.2-0.9,0.6c-0.4,0.3-0.8,0.7-0.8,0.7l0.1,0.1
	c-0.3,0.3-0.2,0-0.4,0.3c0.1,0.2-0.4,0.5-0.3,0.7c0,0-0.1,0.2-0.1,0.1c0.1,0.1-0.1,0.2-0.1,0.3c0,0.1,0,0,0.1,0c0,0.1,0,0.2-0.1,0.3
	c-0.1,0.1-0.1,0.1-0.1,0c-0.2,0.3-0.5,1.4-0.4,2.5s0.5,2.2,0.8,2.6c0-0.1-0.1-0.3-0.1-0.5c0.1,0.2,0.1,0.3,0.2,0.4
	c-0.1,0.2,0.2,0.4,0.1,0.7h0.1v0.1c0.7,0.7,0.5-0.1,1,0.6c0.4,0.3,0.6,0.3,0.8,0.5c0,0-0.1-0.1,0-0.1c0,0.1,0.2,0.1,0.2,0.3
	c0.1,0.1,0.2,0.6,0.2,0.4c0,0.1,0.3,0.3,0.1,0.2c0.1,0.1,0.2,0.1,0.3,0.1l-0.1-0.1c0.4,0.2,0.5,0.3,0.8,0.3l-0.1-0.1
	c0.2,0.1,0.4,0.1,0.5,0.3h-0.2c0.4,0.1,0.6,0.1,0.9,0.1h-0.1c0.2,0,0.8,0,1.3-0.2c0.6-0.1,1-0.4,1.1-0.6h-0.2
	c0.1-0.1,0.1-0.1,0.2-0.2v0.4c0.3-0.1,1.1-0.6,1.7-1.4c0.6-0.7,0.9-1.7,0.9-2c0.1-0.2,0.2,0,0.2,0c0-0.3-0.1-0.2,0-0.4
	c0-0.1,0.1,0,0.1,0.1c0-0.1,0-0.2,0-0.2c-0.1,0.1-0.2,0-0.3,0.1c0-0.1,0-0.2,0-0.3h0.1c0-0.1-0.2-0.6-0.2-0.9c0-0.5-0.1-0.8-0.2-1.3
	c0,0,0.1,0.1,0.2,0.2c0-0.1-0.1-0.2-0.1-0.2c0,0.1-0.1-0.2-0.1-0.1c-0.3-0.3-0.8-0.7-1.1-0.9c-0.1,0-0.2,0-0.7,0.3
	c-0.1-0.1-0.1-0.3-0.2-0.4C138.9,31.5,139.3,31,139.2,30.5z"/>
<path class="st2" d="M135.4,39C135.4,39,135.5,39,135.4,39C135.5,39.1,135.4,39.1,135.4,39c0,0.3,0,0.6,0.1,0.8l0,0
	c0.1,0.1,0.1,0.1,0.1,0.2c0,0-0.1,0-0.1,0.1c0.1,0,0.2,0.3,0.2,0.3h0.1c0,0.1-0.1,0.1-0.1,0.1c0.2,0,0,0.1,0.1,0.1c0,0,0,0-0.1,0.1
	c0.1,0,0,0,0.1,0c0,0,0,0,0.1,0l0,0c0,0-0.1,0.1-0.1,0c0,0.1,0.1,0.7,0.2,0.8c0.1,0,0-0.1,0.1-0.1s0,0.1,0.1,0
	c-0.2,0.1,0,0.1-0.2,0.2h0.1H136c0.2,0.1,0.1,0,0.1,0.1s-0.3,0.1-0.4,0.1l0,0c-0.1,0,0.1,0,0,0.1c0,0,0,0.1,0.1,0
	c-0.1,0-0.1,0.1-0.1,0.1l0,0l0,0v0.1l0,0l0,0l0,0l0,0c1.4,0,2.9-0.1,4.1-0.9c-0.1-0.2-0.3-0.6-0.4-0.7c0.1-0.1,0-0.1,0-0.2h-0.1
	c0-0.1-0.1,0-0.1-0.1c-0.1-0.1-0.3-0.7-0.2-0.9c-0.1,0-0.1-0.1-0.2-0.2l0,0c-0.1-0.1-0.1-0.5-0.2-0.6l0,0c-0.1-0.1,0-0.1,0-0.2
	c-0.1,0.1-0.2,0-0.2,0l0,0l-0.2-0.1h0.1c-0.1,0-0.1-0.1-0.1-0.2c0-0.1,0.1-0.3-0.1-0.3l0.2-0.2l0,0c0,0-2.5,0.8-3,1.2L135.4,39
	l0.1-0.1C135.5,38.9,135.6,38.9,135.4,39L135.4,39C135.5,38.9,135.4,38.9,135.4,39L135.4,39L135.4,39z"/>
<path class="st2" d="M151.1,50.2c-0.1,0-0.3,0-0.2-0.1l0,0c0-0.3-0.4-0.1-0.4-0.4h0.1c0-0.1-0.1-0.1-0.1-0.3c0,0.1-0.1,0.2-0.1,0.1
	c0-0.2-0.1-0.2-0.1-0.4h-0.2c-0.3-0.4-1.6-1.9-1.9-2.3l0,0c-0.5-0.6-1.4-1.9-2-2.3c0.1-0.2-0.1-0.3-0.1-0.5c0,0.1-0.1,0.2-0.2,0.1
	c-0.2-0.3-0.1,0.1-0.4-0.2c-0.4-0.3-1.2-1.8-1.4-2.2c-0.3,0-0.3-0.4-0.6-0.4h0.1c-0.2-0.1-0.8-1.3-1-1.5v0.1c-0.3-0.1,0-0.2-0.1-0.5
	c-0.2,0.2-0.4,0.2-0.5,0.1l0,0c-0.1-0.1-0.4-0.1-0.6-0.2l0.1-0.1c-0.2,0-0.9-0.3-1-0.4c-0.1-0.3-1.5,1.1-1.9,1l-0.3-0.1l-2.2,1.8
	c0,0-1.5,1.2-2.1,2.4l-0.1,0.1l0.1,0.1c0,0.1,0.2,0.1,0,0.2l-0.1-0.1c0,0.1-0.1,0.1-0.2,0.1c0,0,0,0.1,0,0.2c0.1,0,0-0.1,0.1-0.1
	s0.2,0,0.2,0.1s-0.2,0.2-0.1,0.3c0.3,0.6,0.5,1.3,1,1.8c0,0.1,0,0-0.1,0c0.2,0.1,0.3,0.3,0.4,0.4c0,0.1-0.1,0.2-0.1,0.2
	c0.1-0.1,0.7,0.8,0.7,0.8l0.2-0.2c0.1,0.2-0.2,0.3-0.1,0.4c0.3-0.2,0.2,0.3,0.3,0.2c0,0,0,0.1-0.1,0.2c0.2-0.1,0.1,0,0.2,0.1
	c0.1,0,0-0.1,0.1-0.1l0.1,0.1c0,0.1-0.1,0.2-0.2,0.2c0.1,0.3,0.9,1.8,1.2,2.1c0.1-0.2-0.1-0.2,0.1-0.4c0.2,0,0,0.2,0.2,0.1
	c-0.3,0.3,0.1,0.2-0.2,0.6l0.2-0.1L138,51c0.4,0.2,0.1,0,0.3,0.4c0.2,0.2,0.4,0,0.4,0.2l0.1-0.1c-0.1,0.1,0.2,0,0.1,0.2
	c0,0,0.1,0.2,0.3,0c-0.1,0.1,0,0.3-0.2,0.3c0,0.1,0,0.1,0.1,0.1V52c0.1,0.1,0,0.4,0.3,0.3v-0.1c0.1,0.1,0.1,0.1,0,0.4h-0.1
	c0.1,0.1,0.2,0.2,0.4,0.3v-0.1c0.3,0,1.1,0.7,1.4,0.6l0.1-0.2h0.2c0,0-0.5,0.4-0.5,0.3c0.2,0.3,1.3,1.6,1.4,1.9
	c0,0.2-0.2,0.2-0.3,0.3c0.1,0.1,0.2-0.1,0.3,0c0,0.1-0.1,0.1-0.2,0.1c0.1,0,0,0.1,0.1,0.1c0-0.1,0.2-0.2,0.3-0.4l0.1,0.1l-0.1,0.1
	c0,0,0.4-0.2,0.4,0c0.1,0.3,0.3,0.5,0.5,0.7c-0.1,0.1-0.1,0.1-0.2,0c0,0,0.1,0.1,0,0.1c0.1-0.2,0.2,0,0.2-0.1
	c0.4-0.1,0.3,0.4,0.6,0.3l0.9-0.8c0.2,0.2,0.8,0.5,1.4,0.7c0.7,0.2,1.4,0.1,1.7,0c-0.1,0-0.2,0-0.3,0c0.1-0.1,0.2,0,0.2-0.1
	c0.1,0.1,0.3,0,0.4,0.1v-0.1h0.1c0.5-0.3,0.1-0.1,0.6-0.3c0.3-0.2,0.3-0.3,0.5-0.4h-0.1c0.1,0,0.1-0.2,0.2-0.1
	c0.1,0,0.2-0.2,0.1-0.2c0.1,0,0.2-0.1,0.2,0c0-0.1,0.1-0.1,0.1-0.1l-0.1,0.1c0.1-0.2,0.3-0.3,0.3-0.4l-0.1,0.1
	c0.1-0.1,0.1-0.2,0.2-0.2v0.1c0.1-0.2,0.2-0.3,0.2-0.5v0.1c0-0.1,0.1-0.5,0.1-0.9s-0.1-0.7-0.2-0.8l-0.1,0.1c0-0.1-0.1-0.1-0.1-0.2
	c0,0,0.2,0,0.2,0.1c0-0.2-0.2-0.7-0.6-1.2l0.9-0.8c0,0.1,0.1,0.1,0,0.1c0.1-0.1,0-0.2,0-0.2l-0.2,0.1c-0.1-0.1,0.1-0.1,0-0.2
	c0.1-0.1,0.2-0.1,0.3,0c0-0.1,0-0.3-0.2-0.2C150.9,50.4,151.1,50.3,151.1,50.2z"/>
<path class="st2" d="M126.7,42.7v-1h-0.2l0.3-0.2c-0.2-0.2,0.3-2.3,0.2-2.6c0-0.1,0.1-0.1,0.2-0.1c-0.1-0.1-0.4-0.2-0.5-0.3l0.1-0.1
	c0,0,0-0.1-0.1-0.1c0,0.1-0.1,0.1-0.2,0.2l-0.1-0.1l0.1-0.1c0,0-0.3,0.1-0.3,0c-0.1-0.2-0.3-0.4-0.4-0.5c0,0,0.1,0,0.2,0
	c0,0-0.1-0.1,0-0.1c0,0.1-0.1,0-0.1,0c-0.3,0-0.2-0.3-0.4-0.3l-1.6,0.8v-0.1v0.1l-0.3,0.1c0.1,0.1-0.7,0.6-0.6,0.7
	c-0.1,0.1-0.2,0-0.2,0c0,0.1-0.5,0.8-0.4,0.7c0,0.1-0.1,0.1-0.1,0.2c0.1,0,0.2,0,0.2,0.1l0,0c0,0.2,0.3,0.1,0.3,0.3l0,0
	c0,0.1,0.1,0.1,0.1,0.2c0,0,0-0.1,0.1-0.1c0,0.1,0.1,0.2,0.1,0.3h0.1c0.2,0.3,0.9,1.2,1.2,1.5l0.3,1.2"/>
<path class="st2" d="M150,23.2l0.4-0.9h0.2l-0.2-0.3c0.2-0.1,0.6-2.3,0.8-2.4c0.1-0.1-0.1-0.2-0.1-0.2c0.1,0,0.5,0,0.6,0
	c0,0,0-0.1-0.1-0.1c0,0,0.1-0.1,0.1,0s0.1,0.2,0.1,0.3l0.1-0.1l-0.1-0.1c0,0,0.2,0.2,0.3,0.1c0.2-0.1,0.4-0.2,0.6-0.3
	c0,0-0.1,0-0.1-0.1c0,0,0.1,0,0.1-0.1c0,0.1,0.1,0,0.1,0.1c0.2,0.1,0.3-0.2,0.5-0.1l1.2,1.4l0.1-0.1c0,0.1,0,0.1-0.1,0.1l0.2,0.2
	c-0.1,0,0.4,0.8,0.3,0.9c0,0.1,0.1,0.1,0.2,0c-0.1,0,0.1,0.9,0.1,0.8c0,0.1,0.1,0.1,0,0.2c-0.1,0-0.2-0.1-0.2,0l0,0
	c-0.1,0.2-0.3,0-0.4,0.1l0,0c0,0.1-0.2,0.1-0.2,0.2c0,0,0-0.1-0.1-0.1c-0.1,0.1-0.2,0.1-0.2,0.2l-0.1-0.1c-0.3,0.2-1.3,0.7-1.7,0.9
	l-0.7,1"/>
<path class="st2" d="M138.5,80.5c0.1,0.3-1.8,1.6-1.8,1.9c-0.1,0.1-0.2,0.1-0.3,0.1c0.1,0.1,0.2,0,0.2,0.2h-0.1c0,0.1,0,0.1,0.1,0.1
	c0-0.1,0.2-0.1,0.4-0.2l-2.6,1.1h-0.1c0,0,0.3,0,0.3,0.2c0,0.3-0.5,1-0.5,1.3c-0.1,0-0.1,0-0.2-0.1v0.1c0.1-0.1,0.1,0.1,0.2,0
	c0.3,0.1,4.3-0.5,4.6-0.4l5-0.8c0,0.1,0,0.1,0,0.1c0.1,0,0.1-0.2,0-0.2h-0.2c-0.1-0.1,0.1-0.1,0.1-0.2c0.1,0,0.2,0.1,0.2,0.2
	c0-0.1,0.1-0.2-0.1-0.2c0-0.1,0.2,0,0.2-0.1c-0.1-0.1-0.2-0.1-0.1-0.2l0,0c0.1-0.2-0.3-0.3-0.2-0.5l0,0c0.1-0.1-0.1-0.2,0-0.3
	c0,0-0.1,0.1-0.1,0c0.1-0.2,0-0.2,0-0.4l-0.2-0.1c-0.1-0.5-0.7-2.3-0.8-2.8l0,0"/>
<path class="st2" d="M159.3,60.3l-0.1-0.1l-0.2,0.1h0.5c-0.1,0.3,1.7,0.7,1.7,1c0.1,0.1,1.2,0.6,1.2,0.6c-0.1,0.2,0.8,0.3,0.8,0.4
	h0.1c0,0.1,0.5,0.4,0.5,0.4c0.5,0.4,0.2-0.1,0.6,0.1V63h0.1c0,0-0.4,0-0.3,0.2c0,0.3-0.1,0.6-0.1,0.9c0.1,0,0.1,0,0.2-0.1v0.1
	c-0.1-0.1-0.1,0.1-0.1,0c-0.3,0.2-1.9-0.1-2.1,0.1l-7.1-0.7c0,0.1,0,0.1,0,0.1c-0.1,0-0.1-0.1,0-0.2h0.2c0.1-0.1-0.1-0.1-0.1-0.2
	c-0.1,0-0.2,0.1-0.2,0.2c0-0.1-0.1-0.2,0.1-0.2c0-0.1-0.2,0-0.2-0.1c0.1-0.1,0.2-0.2,0.1-0.3l0,0c-0.1-0.2,0.3-0.3,0.2-0.5H155
	c-0.1-0.1,0.1-0.2,0-0.3c0,0,0.1,0.1,0.1,0c-0.1-0.2,0-0.2,0-0.4l0.2-0.1c0.1-0.5,0.4-1.6,0.5-2.1l0,0"/>
<path class="st2" d="M143.9,66c-0.1,0,0.4-0.8,0.4-0.8l-0.2-0.1c0.1-0.2,0.2,0.1,0.3-0.1c-0.2-0.2,0.2-0.2,0.1-0.4c0,0,0.1,0,0.2,0
	c-0.1-0.1,0-0.1,0-0.2c0,0,0,0-0.1,0v-0.1c0.1,0,0.2,0,0.2,0.1c0.2-0.2,1.1-1.4,1.2-1.7c-0.1,0-0.1,0.1-0.3,0
	c-0.1-0.1,0.1-0.1,0-0.2c0.3,0.1,0.2-0.1,0.5,0l-0.1-0.1h0.1c0-0.4,0-0.1,0.2-0.4c0.1-0.2-0.1-0.4,0.1-0.4c0,0-0.1,0-0.1-0.1
	c0.1,0.1,0-0.2,0.1-0.1c0,0,0.4,0,0.2,0c0.1,0,0.2-0.1,0.2,0.1l0.1-0.1h-0.1c0.1-0.2,0.2-0.1,0.1-0.3h-0.1c0-0.1,0.1-0.2,0.3-0.1v0
	c0.1-0.1,0.1-0.2,0.1-0.4l0,0c-0.1-0.3,0.2-1.1,0.1-1.4h-0.2V59l0.4,0.3c0.1-0.3,0.8-1.6,1.1-1.8c0.1,0,0.2,0.1,0.2,0.1
	c0-0.1-0.1-0.1,0-0.2l0.1,0.1c0-0.1,0.1-0.1,0-0.1s-0.2-0.1-0.4-0.2l0.1-0.1l0.1,0.1c0,0-0.2-0.3-0.1-0.3c0.2-0.2,0.3-0.4,0.4-0.6
	c0.1,0,0.1,0.1,0.1,0.2c0,0,0-0.1,0.1-0.1c-0.1,0,0-0.1-0.1-0.1c-0.2-0.3,0.2-0.4,0.1-0.6l-4.8-2.9l0.1-0.1c-0.1,0-0.2,0-0.1,0.1
	l0.1,0.1c0,0.1-0.1,0-0.2,0.1c-0.1-0.1-0.1-0.2-0.1-0.3c-0.1,0.1-0.2,0.1-0.1,0.2c-0.1,0-0.1-0.1-0.2-0.1c0,0.1,0.1,0.2,0,0.2l0,0
	c-0.2,0.1,0,0.4-0.2,0.4l0,0c-0.1,0-0.1,0.2-0.2,0.2c0,0,0.1,0,0.1,0.1c-0.1,0.1-0.1,0.2-0.3,0.2l0.1,0.1c-0.3,0.4-0.7,1.5-1,1.9
	l0,0c-0.3,0.6-0.9,1.8-1.1,2.5c-0.2,0-0.2,0.2-0.3,0.2c0.1,0,0.1,0,0.1,0.1c-0.2,0.3,0.1,0.1-0.1,0.4c-0.1,0.4-1,1.6-1.3,1.8
	c0.1,0.3-0.2,0.4-0.2,0.6l0,0c0,0.2-0.8,1.1-0.9,1.3l0,0c0,0.2-0.2,0.1-0.3,0.2c0.2,0.1,0.2,0.3,0.2,0.4l0,0c0,0.1,0,0.4,0,0.6
	l-0.1-0.1c0,0.2-0.1,0.4-0.2,0.5c-0.2,0.2-0.5,0.3-0.5,0.7h-0.4l0,0c0,0,0.1,0.1,0.3,0.2c0,0.1,0,0.1,0,0.1h0.1c0,0.2-0.1,0-0.1,0.2
	c0.1,0.1,0,0.3,0,0.3V66v0.1l0,0v0.1c0,0,0,0.1,0,0c0,0.2,0.1,0.6,0.3,1.1c0.2,0.4,0.6,0.8,0.8,0.9c0-0.1-0.1-0.1-0.1-0.2
	c0.1,0,0.1,0.1,0.2,0.1c0,0.1,0.2,0.1,0.2,0.3l0,0v0.1c0.4,0.1,0.1,0,0.4,0.2c0.2,0.1,0.3,0,0.4,0.1c0,0-0.1,0,0-0.1
	c0,0,0.1,0,0.2,0c0,0,0.2,0,0.1,0c0,0,0.2,0.1,0.1,0.1c0.1,0,0.1,0,0.1,0h-0.1c0.2,0,0.3,0,0.4,0h-0.1c0.1,0,0.2,0,0.2,0h-0.1
	c0.2,0,0.2-0.1,0.4-0.1l0,0c0.1,0,0.3-0.2,0.5-0.3c0.2-0.2,0.3-0.4,0.3-0.5h-0.1v-0.1l0.1,0.1c0,0,0-0.1,0.1-0.1l0,0v-0.1
	c0.1,0,0-0.2,0.1-0.1l-0.1,0.1c0.1-0.1,0.1,0,0.1,0.1l0.1-0.1c0,0,0,0-0.1,0c0-0.1-0.1-0.2,0-0.2c0.1-0.1,0.2,0.1,0.2,0
	c0.4-0.4,0.8-0.9,1.1-1.4c0.1,0,0,0,0.1,0.1c0-0.2,0.1-0.3,0.2-0.5C143.8,66,143.8,66,143.9,66z"/>
<path class="st2" d="M158,43.1c-0.1,0-0.2,0.1-0.4,0.2h-0.1l0,0l0,0c0,0-0.1,0-0.1,0.1c0-0.1,0-0.2,0.1-0.2c-0.1,0-0.2,0-0.2,0.1
	c-0.1,0-0.1-0.2-0.2-0.2c0,0.1,0,0.2-0.2,0.2l0,0c-0.2-0.1-0.1,0.3-0.4,0.3l0,0c-0.1-0.1-0.1,0.1-0.3,0.1c0,0,0.1,0.1,0.1,0.2
	c-0.2,0-0.2,0.1-0.3,0v0.2c-0.4,0.2-1.4,0.8-1.8,1.1l0,0c-0.6,0.3-1.8,0.9-2.3,1.4c-0.2-0.1-0.3,0-0.4,0c0.1,0,0.1,0.1,0.1,0.2
	c-0.3,0.1,0,0.1-0.2,0.3c-0.3,0.3-1.7,0.8-2.1,0.8c-0.1,0.3-0.4,0.2-0.4,0.4v-0.1c-0.1,0.2-1.2,0.4-1.4,0.6l0,0
	c-0.1,0.2-0.2,0-0.4,0c0.1,0.2,0,0.4,0,0.5v-0.1c-0.1,0.1-0.2,0.4-0.3,0.5l-0.1-0.1c-0.1,0.2-0.3,0.2-0.4,0.3c-0.2,0-0.6,0-0.8,0.3
	l-0.3-0.3l0,0c0,0,2,4.6,2.8,5.3l0.1,0.1h0.1c0.1,0,0.1-0.1,0.1,0h-0.1c0.1,0,0.1,0.1,0.1,0.2h0.1c0-0.1,0,0-0.1-0.1
	c0-0.1,0-0.2,0.1-0.2s0.1,0.2,0.2,0.2c0.6-0.2,1.1-0.3,1.7-0.5V55c0.1-0.1,0.3-0.2,0.4-0.3c0.1,0,0.1,0.1,0.2,0.1
	c-0.1-0.1,0.7-0.5,0.8-0.5l-0.1-0.2c0.2-0.1,0.2,0.2,0.3,0.1c-0.1-0.3,0.3-0.1,0.2-0.3c0,0,0.1,0,0.1,0.1c-0.1-0.2,0.1-0.1,0.1-0.1
	c0-0.1,0,0-0.1-0.1l0.1-0.1c0.1,0,0.1,0.1,0.1,0.2c0.3-0.1,1.4-1,1.7-1.2c-0.1-0.1-0.1,0-0.3-0.2c0-0.1,0.1,0,0.1-0.1
	c0.2,0.3,0.2,0,0.4,0.3l-0.1-0.2l0.1,0.1c0.2-0.3,0-0.1,0.3-0.2c0.2-0.1,0.1-0.4,0.3-0.3l-0.1-0.1c0.1,0.1,0.1-0.2,0.2,0
	c0,0,0.2-0.1,0-0.3c0.1,0.1,0.2,0.1,0.2,0.2c0,0,0.1,0,0.1-0.1h-0.1c0.1-0.1,0.3,0,0.3-0.2l-0.1-0.1c0.1-0.1,0.1-0.1,0.3,0.1
	l-0.1,0.1c0.1-0.1,0.2-0.1,0.3-0.3l0,0c0.1-0.3,0.8-0.8,0.8-1.1l-0.1-0.1l0.1-0.2l0.2,0.5c0.2-0.1,1.5-0.9,1.8-0.9
	c0.1,0,0.1,0.2,0.1,0.3c0.1-0.1,0-0.2,0.1-0.2c0,0,0.1,0.1,0.1,0.2c0,0,0.1,0,0.1-0.1c-0.1,0-0.2-0.2-0.2-0.3h0.1l0.1,0.1
	c0,0-0.1-0.4,0.1-0.4c0.2,0,0.4-0.2,0.7-0.3c0,0.1,0,0.1,0,0.2h0.1c-0.1-0.1,0-0.1,0-0.2c0-0.4,0.3-0.2,0.4-0.5l-0.1-0.2l0.1-0.1
	h0.1c0,0,0.2-0.2,0.3-0.4s0.3-0.4,0.3-0.4l0,0c0.1-0.2,0.1,0,0.1-0.2c-0.1-0.1,0.1-0.3,0.1-0.4v-0.1c0,0,0-0.1,0-0.2l0,0v-0.1
	c0,0,0-0.1,0,0c0-0.2,0.1-0.7-0.1-1.1c-0.1-0.5-0.4-0.9-0.6-1c0,0.1,0.1,0.1,0.1,0.2c-0.1-0.1-0.1-0.1-0.1-0.1
	c0-0.1-0.1-0.2-0.1-0.3h-0.1v-0.1c-0.4-0.2-0.1-0.1-0.4-0.3c-0.2-0.1-0.3-0.1-0.4-0.1v0.1c0-0.1-0.1,0-0.2-0.1c0,0-0.2-0.1-0.2,0
	c0,0-0.2-0.1-0.1-0.1H159h0.1c-0.2,0-0.3-0.1-0.4,0h0.1c-0.1,0-0.2,0-0.2,0h0.1C158.2,43.1,158.1,43.1,158,43.1L158,43.1z"/>
<path class="st2" d="M142.7,76.9h-0.2c0-0.2,0.3-0.1,0.2-0.2c-0.3-0.1,0-0.3-0.2-0.3c0,0,0-0.1,0.1-0.1c-0.2,0,0-0.1-0.1-0.1h-0.1
	l-0.1-0.1c0.1,0,0.2-0.1,0.2,0c0.1-0.3,0.2-1.7,0.1-2c-0.1,0,0,0.1-0.3,0.2c-0.1-0.1,0-0.1-0.1-0.2c0.3,0,0.1-0.2,0.4-0.3h-0.2h0.1
	c-0.2-0.4-0.1-0.1-0.1-0.4c0-0.2-0.3-0.3-0.2-0.4c0,0-0.1,0.1-0.2,0c0.2,0-0.1-0.1,0-0.2c0,0,0-0.2-0.2-0.1c0.1,0,0.2-0.2,0.3-0.1
	c0-0.1,0-0.1,0-0.1l-0.1,0.1c0-0.1,0.3-0.5,0.1-0.6l0.3,0.4c0-0.1-0.4-0.5-0.2-0.5l0.1,0.1c0-0.2,0-0.2-0.1-0.4l0,0
	c-0.2-0.2,0-0.7-0.3-0.8l-0.2,0.1l-0.1-0.1c0,0,0.6,0,0.5,0.1c0-0.3-0.2-1.7-0.1-2c0.1-0.1,0.3,0,0.3,0c-0.1-0.1-0.2,0-0.2-0.2
	c0,0,0.1,0,0.2,0v-0.1c-0.1,0.1-0.3,0-0.4,0.1v-0.1h0.1c0,0-0.4-0.1-0.3-0.2c0.1-0.2,0-0.5,0-0.7c0.1,0,0.1,0.1,0.2,0.1v-0.1
	c-0.1,0.1-0.1-0.1-0.2,0c-0.3-0.2,0-0.4-0.3-0.5l-4.2,0.1c0-0.1,0-0.1,0-0.1c-0.1,0-0.1,0.1-0.1,0.2h0.2c0.1,0.1-0.1,0-0.1,0.1
	c-0.2,0-0.2-0.1-0.2-0.2c0,0.1-0.1,0.2,0,0.2c-0.1,0.1-0.2,0-0.2,0.1s0.2,0.1,0.1,0.2l0,0c-0.2,0.2,0.2,0,0.1,0.1l0,0
	c-0.1,0.1,0,0.2-0.1,0.3c0,0,0.1-0.1,0.2,0c-0.1,0.1,0,0.2-0.1,0.3l0.1,0.1c0,0.4,0.2,2.1,0.3,2.5l0,0c0.1,0.6-0.4,2-0.1,2.7
	c-0.1,0.1-0.1,0.2-0.1,0.3c0.1-0.1,0.2,0,0.2,0c0,0.3,0.1,0,0.2,0.3c0.1,0.4,0.1,1.5-0.1,1.8c0.2,0.2,0.1,0.4,0.2,0.6l0,0
	c0.1,0.2-0.1,1.3,0,1.5l0,0c0.1,0.2-0.1,0.2-0.2,0.3c0.2,0,0.4,0.1,0.4,0.2h-0.1c0,0.1-0.4,0.5-0.4,0.6h-0.1
	c0.1,0.1,0.1,0.4,0.1,0.5c-0.1,0.2,0.3,0.6,0.5,0.8l-0.4,0.2l0,0c0,0,4,0.2,5-0.2h0.1v-0.1c0.1-0.1-0.1-0.1,0-0.1v0.1
	c0-0.1,0.1,0,0.2,0c0,0,0-0.1,0.1-0.1c-0.1,0-0.1,0-0.1,0c-0.1,0-0.2-0.1-0.1-0.2c0-0.1,0.2,0,0.2-0.1c0.1-0.6-0.3-1.2-0.4-1.7
	c0.1,0,0.1,0,0.1,0c-0.1-0.2,0-0.3-0.1-0.5c0.1,0,0.1-0.1,0.2-0.1C142.7,77.8,142.6,76.9,142.7,76.9z"/>
<path class="st2" d="M160.8,56.5h-0.2c0-0.2,0.3,0,0.2-0.2c-0.3-0.1,0.1-0.3-0.1-0.3c0,0,0-0.1,0.1-0.1c-0.2,0,0-0.1-0.1-0.1
	s-0.1,0-0.1,0l-0.1-0.1c0.1,0,0.2,0,0.2,0c0.1-0.3,0.4-1.7,0.3-2c-0.1,0-0.1,0.1-0.3,0.1c-0.1-0.1,0.1-0.1-0.1-0.2
	c0.3,0,0.1-0.2,0.4-0.2h-0.2h0.1c-0.2-0.4-0.1-0.1,0-0.4c0-0.2-0.3-0.3-0.2-0.4c0,0-0.1,0-0.2,0c0.2,0-0.1-0.1,0.1-0.1
	c0,0,0-0.2-0.2-0.2c0.1,0,0.2-0.1,0.3-0.1v-0.1l-0.1,0.1c0-0.2,0.4-0.5,0.2-0.6l0.3,0.4c0-0.1-0.4-0.5-0.1-0.6l0.1,0.1
	c0-0.2,0-0.3-0.1-0.4l0,0c-0.2-0.2,0-0.7-0.2-0.9l-0.2,0.1l-0.1-0.1l0.5,0.1c0-0.3,0-1.7,0.1-2c0.1-0.1,0.3,0,0.3,0
	c-0.1-0.1-0.2-0.1-0.2-0.2c0,0,0.1,0,0.2,0V48c-0.1,0-0.3,0-0.4,0v-0.1h0.1c0,0-0.4-0.1-0.3-0.2c0.1-0.2,0-0.5,0.1-0.7
	c0.1,0,0.1,0.1,0.2,0.1c0,0,0-0.1,0.1-0.1c-0.1,0-0.1-0.1-0.1-0.1c-0.3-0.2,0-0.4-0.2-0.6l-4.2-0.3c0-0.1,0-0.1,0.1-0.1
	c-0.1,0-0.1,0.1-0.1,0.1h0.2c0.1,0.1-0.1,0-0.1,0.1c-0.2,0-0.2-0.1-0.2-0.2c0,0.1-0.1,0.1,0,0.2c-0.1,0.1-0.2,0-0.3,0.1
	c0,0.1,0.2,0.2,0.1,0.2l0,0c-0.2,0.2,0.2,0,0,0.2l0,0c-0.1,0.1,0,0.2-0.1,0.3c0,0,0.1,0,0.2,0c-0.1,0.1,0,0.2-0.1,0.3l0.1,0.1
	c-0.1,0.4,0,2.1,0,2.5l0,0c0,0.6-0.6,2-0.4,2.7c-0.2,0.1-0.1,0.2-0.2,0.3c0.1-0.1,0.2,0,0.2,0c0,0.3,0.1,0,0.1,0.4
	c0.1,0.4-0.1,1.5-0.3,1.8c0.2,0.2,0,0.4,0.1,0.6h-0.1c0.1,0.2-0.2,1.2-0.2,1.5l0,0c0.1,0.2-0.1,0.2-0.2,0.3c0.2,0,0.4,0.2,0.4,0.2
	h-0.1c0,0.1-0.5,0.4-0.4,0.6h-0.1c0.1,0.1,0,0.4,0.1,0.5c-0.1,0.2,0.3,0.6,0.4,0.9l-0.4,0.1l0,0c0,0,3.9,0.6,4.9,0.3h0.1v-0.1
	c0.1-0.1-0.1-0.1,0.1-0.1v0.1c0.1-0.1,0.1,0,0.2,0c0,0,0-0.1,0.1-0.1h-0.1c0-0.1-0.2-0.1-0.1-0.2c0-0.1,0.2,0,0.2-0.1
	c0.1-0.6-0.2-1.2-0.2-1.8c0.1,0,0.1,0,0.1,0c0-0.2,0-0.3-0.1-0.5c0.1,0,0.1,0,0.2,0C160.8,57.4,160.8,56.5,160.8,56.5z"/>
<path class="st11" d="M163.4,41.7c0.3,0.1,0.5,0.4,0.7,0.6c0.7,0.8,1.4,1.9,1.8,3c0.3,0.7,0.2,1.3,0.2,2.1c0,0.5,0,0.9-0.2,1.4
	c-0.1,0.3-0.3,0.7-0.2,1"/>
<path class="st11" d="M168,43.8c0.1,0,0.1,0,0.2,0c0.1,0.4,0.2,0.8,0.3,1.2c0.1,0.5,0.2,0.9,0.2,1.4"/>
<path class="st2" d="M136.2,46.8c0-0.3,0.2-0.2,0.2-0.4l-0.2-0.2l0,0l0,0l0,0c0.1-0.1,0.1-0.1,0.1-0.2l0,0c0-0.1,0.1-0.1,0.1-0.1V46
	c0.1-0.1,0.1-0.2,0.1-0.3l0,0c0-0.1,0-0.2,0-0.4s-0.1-0.4-0.1-0.4V45v-0.1h0.1c0-0.1-0.1-0.4-0.3-0.7s-0.5-0.5-0.6-0.5
	c-0.1-0.1,0-0.1,0-0.1c-0.1,0-0.1,0-0.1,0l0,0h-0.1v0.1h-0.1l0,0c0,0-0.1,0-0.2,0c-0.2-0.1-0.3-0.1-0.5-0.1c0,0,0,0,0.1,0h-0.1
	c0,0-0.1,0,0,0c-0.1,0-0.2,0-0.3,0.1l-0.1-0.1h0.1c-0.1,0-0.1,0-0.1,0l0.1,0.1c0,0.1-0.1-0.1-0.1,0c-0.1-0.1,0-0.2,0-0.2
	c-0.1,0-0.2,0-0.1,0.1c-0.1,0-0.1-0.1-0.2-0.1c0,0.1,0,0.2-0.1,0.2l0,0c-0.1,0-0.1,0.1-0.2,0.2l0,0c-0.1,0,0,0-0.1,0l0,0l0,0
	c-0.1,0-0.1,0.1-0.2,0.1h0.1c0,0-0.1,0-0.1,0.1c-0.1,0-0.1,0.1-0.2,0.1v0.1c-0.3,0.2-0.7,0.6-0.9,0.8l0,0c-0.4,0.4-1.3,1-1.6,1.5
	c-0.1,0-0.2,0.1-0.3,0.1c0.1,0,0.1,0.1,0.1,0.1c-0.2,0.1,0,0.1-0.2,0.3c-0.2,0.3-1.2,0.9-1.5,1c0,0.2-0.2,0.2-0.3,0.4l0,0
	c-0.1,0.1-0.9,0.6-1,0.7l0,0c-0.1,0.2-0.2,0-0.3,0c0.1,0.1,0.1,0.3,0,0.3l0,0c0,0.1-0.1,0.3-0.2,0.4l-0.1-0.1c0,0.1-0.2,0.2-0.3,0.3
	c-0.2,0.1-0.5,0.1-0.6,0.3l-0.3-0.1l0,0c0,0,0.1,0.1,0.2,0.3l0,0l0,0c-0.1,0.1-0.1,0.2-0.1,0.3c0,0,0,0-0.1,0c0,0,0,0.2-0.1,0.3
	c0,0.2,0,0.4,0,0.4l0,0c0,0.1,0,0,0,0.2c0.1,0,0,0.2,0.1,0.3v0.1c0,0,0,0.1,0.1,0.1l0,0v0.1c0,0,0,0.1,0,0c0,0.1,0.2,0.4,0.5,0.7
	s0.6,0.4,0.7,0.5l-0.1-0.1c0.1,0,0.1,0,0.1,0c0,0.1,0.1,0.1,0.2,0.1l0,0l0,0c0.3,0,0.1,0,0.3,0c0.1,0,0.2,0,0.3,0l0,0h0.1
	c0,0,0.2,0,0.1-0.1h0.1h0.1l0,0c0.1,0,0.2,0,0.2-0.1l0,0h0.1l0,0c0,0,0,0,0.1,0l0,0c0,0,0,0,0.1,0l0,0l0,0l0.1-0.1c0,0,0,0,0.1,0
	c0.4-0.2,0.9-0.4,1.2-0.7c0,0,0,0,0,0.1c0.1-0.1,0.2-0.2,0.3-0.3c0.1,0,0.1,0.1,0.1,0.1c-0.1-0.1,0.5-0.5,0.5-0.5l-0.1-0.1
	c0.1-0.1,0.2,0.1,0.2,0c-0.1-0.2,0.2-0.1,0.1-0.2h0.1c-0.1-0.1,0-0.1,0-0.1s0,0-0.1-0.1v-0.1c0.1,0,0.1,0.1,0.1,0.1
	c0.2-0.1,1.2-0.7,1.4-0.9c-0.1-0.1-0.1,0-0.2-0.1c0-0.1,0.1,0,0.1-0.1c0.2,0.2,0.2,0,0.3,0.1l-0.1-0.1h0.1c0.2-0.3,0-0.1,0.3-0.2
	c0.1-0.1,0.1-0.3,0.2-0.3c0,0-0.1,0-0.1-0.1c0.1,0.1,0-0.1,0.1,0c0,0,0.1-0.1,0-0.2c0.1,0.1,0.2,0,0.2,0.1c0,0,0.1,0,0.1-0.1h-0.1
	c0.1-0.1,0.2,0,0.2-0.2h-0.1c0.1-0.1,0.1-0.1,0.2,0v0.1c0.1-0.1,0.2-0.1,0.2-0.3l0,0c0-0.2,0.5-0.7,0.5-1l-0.1-0.1V48
	c0,0,0.2,0.4,0.2,0.3c0.2-0.1,0.4-0.4,0.7-0.5c0.1,0,0.1,0.2,0.1,0.2c0.1-0.1,0-0.1,0-0.2l0.1,0.1c0,0,0.1,0,0-0.1
	c-0.1,0-0.1-0.1-0.2-0.2l0.1-0.1l0.1,0.1c0,0-0.1-0.3,0-0.3C135.8,47,135.9,46.8,136.2,46.8c0,0,0,0.1-0.1,0.2c0,0,0,0,0.1,0
	C136.1,46.8,136.2,46.8,136.2,46.8z"/>
<path class="st2" d="M128.9,49.1h-0.1c0-0.1,0.2-0.1,0.1-0.2c-0.2,0,0-0.2-0.1-0.2c0,0,0-0.1,0.1-0.1c-0.1,0,0-0.1-0.1-0.1
	c0,0,0,0-0.1,0v-0.1c0,0,0.1-0.1,0.1,0c0-0.2,0-1.2-0.1-1.5c-0.1,0,0,0.1-0.1,0.2c-0.1,0,0-0.1-0.1-0.1c0.2-0.1,0-0.1,0.2-0.2h-0.1
	h0.1c-0.2-0.2-0.1,0-0.1-0.3c0-0.1-0.2-0.2-0.2-0.3c0,0-0.1,0.1-0.1,0c0.1,0-0.1-0.1,0-0.1c0,0,0-0.1-0.1-0.1c0.1,0,0.1-0.1,0.1-0.1
	v-0.1v0.1c0-0.1,0.1-0.2-0.1-0.2v0.1c0-0.1,0-0.1,0.1-0.2v0.1c0-0.1,0-0.2-0.1-0.3l0,0c-0.1-0.1-0.3-0.7-0.5-0.8l-0.1,0.1l-0.1-0.1
	h0.3c0-0.2-0.3-1.2-0.2-1.4c0-0.1,0.2,0,0.2,0c-0.1-0.1-0.1,0-0.1-0.1h0.1V43c0,0.1-0.1,0.1-0.2,0.1V43h0.1c0,0-0.2,0-0.2-0.1
	c0-0.2,0-0.3-0.1-0.5c0,0,0.1,0,0.1,0.1v-0.1c-0.1,0.1-0.1-0.1-0.1,0c-0.2-0.1-0.1-0.3-0.2-0.4l-3.1,0.4v-0.1c0,0-0.1,0.1,0,0.1h0.1
	c0,0.1-0.1,0,0,0.1c-0.1,0-0.1,0-0.1-0.1c0,0.1-0.1,0.1,0,0.1c0,0.1-0.1,0-0.1,0.1l0.1,0.1l0,0c-0.1,0.1,0.2,0.2,0.1,0.3l0,0
	c0,0.1,0,0.1,0,0.2c0,0,0.1-0.1,0.1,0s0,0.1,0,0.2h0.1c0,0.3,0.3,1.5,0.4,1.8l0,0c0.1,0.4,0.2,1.4,0.4,1.8c-0.1,0.1,0,0.2,0,0.3h0.1
	c0,0.2,0.1,0,0.1,0.2c0.1,0.3,0.2,1.3,0.2,1.6c0.1,0.1,0.1,0.3,0.2,0.4l0,0c0.1,0.1,0.1,0.9,0.1,1.1l0,0c0.1,0.1,0,0.1-0.1,0.2
	c0.1,0,0.2,0.1,0.3,0.1l0,0c0,0.1,0.2,0.2,0.2,0.3h-0.1c0.1,0.1,0.1,0.3,0.1,0.3c0,0.2-0.1,0.4,0,0.6l-0.2,0.2l0,0
	c0,0,2.7-0.3,3.2-0.7h0.1v-0.1c0-0.1-0.1-0.1,0-0.1v0.1c0-0.1,0.1,0,0.1,0v-0.1l0,0l-0.1-0.1c0-0.1,0.1,0,0.1-0.1
	c0-0.4,0-0.8-0.1-1.2l0,0c-0.1-0.1-0.1-0.2-0.1-0.3l0.1-0.1C129,49.8,128.9,49.2,128.9,49.1z"/>
<path class="st2" d="M141.5,38.9c0.1,0.3-0.2,0.2-0.2,0.4l0.2,0.2l0,0l0,0l0,0c0,0.1-0.1,0.1-0.1,0.2l0,0c0,0.1,0,0.1-0.1,0.1v-0.1
	c0,0.1-0.1,0.2-0.1,0.3l0,0c0,0.1,0,0.2,0,0.4s0.1,0.4,0.2,0.4v-0.1c0,0,0,0.1,0.1,0.1h-0.1c0,0.1,0.2,0.4,0.4,0.6
	c0.2,0.2,0.5,0.4,0.6,0.4c0.1,0.1,0,0.1,0,0.1c0.1,0,0.1,0,0.1,0l0,0h0.1v-0.1h0.1l0,0c0,0,0.1,0,0.2,0c0.2,0,0.4,0,0.5,0
	c0,0,0,0-0.1,0h0.1c0,0,0.1,0,0,0c0.1-0.1,0.2-0.1,0.3-0.1l0.1,0.1c0,0-0.1,0.1-0.1,0c0.1,0,0.1,0,0.1,0l-0.1-0.1c0-0.1,0.1,0,0.1,0
	c0.1,0.1,0,0.2,0,0.2c0.1,0,0.2,0,0.1-0.1c0.1,0,0.1,0.1,0.2,0.1c0-0.1,0-0.2,0.1-0.2l0,0c0.1,0,0.1-0.1,0.1-0.2l0,0
	c0.1,0,0,0,0.1,0l0,0l0,0c0.1,0,0.1-0.1,0.2-0.1h-0.1c0,0,0,0,0.1-0.1c0.1,0,0.1-0.1,0.2-0.1v-0.1c0.3-0.2,0.6-0.7,0.8-0.9l0,0
	c0.3-0.4,1.1-1.2,1.4-1.7c0.1,0,0.2-0.1,0.3-0.1c-0.1,0-0.1-0.1-0.1-0.1c0.2-0.2,0-0.1,0.1-0.3c0.2-0.3,1.1-1,1.4-1.2
	c0-0.2,0.2-0.3,0.3-0.4l0,0c0.1-0.2,0.8-0.7,0.9-0.8l0,0c0-0.2,0.1,0,0.3-0.1c-0.1-0.1-0.1-0.3-0.1-0.3l0,0c0-0.1,0-0.3,0.1-0.4
	l0.1,0.1c0-0.2,0.2-0.3,0.2-0.3c0.2-0.1,0.5-0.2,0.6-0.4l0.3,0.1l0,0c0,0-0.1-0.1-0.3-0.3l0,0l0,0c0.1-0.1,0.1-0.2,0.1-0.4l0,0
	c0,0,0-0.2,0-0.3c0-0.2,0-0.4,0-0.4l0,0c0-0.1,0,0,0-0.2c-0.1,0-0.1-0.2-0.1-0.2v-0.1c0,0,0-0.1-0.1-0.1l0,0c0,0,0,0-0.1-0.1
	c0,0,0-0.1,0,0c-0.1-0.1-0.3-0.4-0.6-0.6s-0.7-0.4-0.8-0.4c0,0,0.1,0,0.1,0.1c-0.1,0-0.1,0-0.1,0c0-0.1-0.1,0-0.2-0.1l0,0l0,0
	c-0.3,0-0.1,0-0.3,0s-0.2,0.1-0.3,0.1l0,0h-0.1l-0.1,0.1h-0.1h-0.1l0,0c-0.1,0.1-0.2,0.1-0.2,0.1l0,0H148l0,0c0,0,0,0-0.1,0v-0.1
	c0,0,0,0-0.1,0.1l0,0l0,0l-0.1,0.1c0,0,0,0-0.1,0c-0.4,0.3-0.8,0.5-1.1,0.9c0,0,0,0,0-0.1c-0.1,0.1-0.2,0.2-0.2,0.3
	c-0.1,0-0.1,0-0.1-0.1c0.1,0-0.5,0.6-0.5,0.6l0.1,0.1c-0.1,0.1-0.2-0.1-0.2,0c0.1,0.2-0.2,0.1-0.1,0.3h-0.1c0.1,0.1,0,0.1,0,0.1
	s0,0,0.1,0v0.1c-0.1,0-0.1-0.1-0.1-0.1c-0.2,0.1-1.1,0.8-1.3,1.1c0.1,0.1,0.1-0.1,0.2,0c0,0.1-0.1,0,0,0.1c-0.2-0.2-0.1,0.1-0.4-0.1
	l0.1,0.1h-0.1c-0.1,0.3,0,0.1-0.2,0.3c-0.1,0.1,0,0.3-0.1,0.3c0,0,0.1,0,0.1,0.1c-0.1-0.1,0,0.1-0.1,0.1c0,0-0.1,0.1,0,0.2
	c-0.1,0-0.2,0-0.2-0.1c0,0-0.1,0-0.1,0.1h0.1c-0.1,0.1-0.2,0.1-0.2,0.2h0.1c-0.1,0.1-0.1,0.1-0.2,0V36c-0.1,0.1-0.1,0.2-0.2,0.3l0,0
	c0,0.2-0.4,0.8-0.4,1h0.1v0.2c0,0-0.3-0.3-0.2-0.3c-0.2,0.2-0.4,0.4-0.6,0.5c-0.1,0-0.1-0.1-0.2-0.2c0,0.1,0.1,0.1,0,0.2l-0.1-0.1
	c0,0-0.1,0,0,0.1c0.1,0,0.2,0.1,0.2,0.2l-0.1,0.1l-0.1-0.1c0,0,0.1,0.2,0,0.3C141.9,38.6,141.7,38.7,141.5,38.9c0,0,0-0.1,0-0.2
	c0,0,0,0.1-0.1,0C141.6,38.8,141.5,38.8,141.5,38.9z M148.2,31.7L148.2,31.7L148.2,31.7L148.2,31.7z"/>
<path class="st2" d="M151.8,31.3h-0.1c0-0.1,0.2,0,0.2-0.1c-0.2-0.1,0.1-0.2,0-0.2c0,0,0-0.1,0.1,0c-0.1,0,0-0.1,0-0.1s0,0-0.1,0
	v-0.1h0.1c0.1-0.2,0.4-1.2,0.4-1.4c-0.1,0,0,0.1-0.2,0.1c-0.1-0.1,0-0.1,0-0.1c0.2,0,0.1-0.1,0.3-0.1h-0.1h0.1c-0.1-0.3,0-0.1,0-0.3
	c0-0.1-0.1-0.2-0.1-0.3h-0.1c0.1,0,0-0.1,0.1-0.1c0,0,0-0.1-0.1-0.1c0.1,0,0.1-0.1,0.2,0v-0.1l0,0c0-0.1,0.1-0.2,0-0.2h-0.1
	c0-0.1,0-0.1,0.1-0.1v0.1c0-0.1,0-0.2,0-0.3l0,0c-0.1-0.1-0.1-0.8-0.2-0.9h-0.1l-0.1-0.1l0.3,0.1c0-0.2,0.2-1.2,0.3-1.4
	c0.1-0.1,0.2,0,0.2,0c0-0.1-0.1-0.1-0.1-0.1h0.1v-0.1h-0.2v-0.1h0.1c0,0-0.2-0.1-0.1-0.2c0.1-0.2,0.1-0.3,0.1-0.5l0.1,0.1v-0.1
	c-0.1,0,0-0.1-0.1-0.1c-0.2-0.1,0-0.3-0.1-0.4l-3.1-0.7v-0.1l-0.1,0.1h0.1c0,0.1-0.1,0-0.1,0.1c-0.1,0-0.1-0.1-0.1-0.1
	c0,0.1-0.1,0.1,0,0.1c-0.1,0-0.1,0-0.2,0c0,0,0.1,0.1,0,0.2l0,0c-0.1,0.1,0.1,0.2,0,0.3l0,0c-0.1,0,0,0.1-0.1,0.2h0.1
	c-0.1,0.1,0,0.1-0.1,0.2l0.1,0.1c-0.1,0.3-0.2,1.5-0.2,1.8l0,0c-0.1,0.5-0.2,1.4-0.2,1.9c-0.1,0.1-0.1,0.2-0.1,0.2h0.1
	c-0.1,0.2,0.1,0,0,0.3c0,0.3-0.3,1.3-0.4,1.5c0.1,0.1,0,0.3,0,0.4l0,0c0,0.1-0.2,0.9-0.2,1.1l0,0c0,0.2-0.1,0.1-0.1,0.2
	c0.1,0,0.2,0.1,0.2,0.2l0,0c0,0.1,0.1,0.2,0.1,0.4h-0.1c0.1,0.1,0,0.3,0,0.3c-0.1,0.1-0.2,0.4-0.2,0.6l-0.2,0.1l0,0
	c0,0,2.6,0.6,3.2,0.4h0.1v-0.1c0.1-0.1,0-0.1,0-0.1v0.1c0-0.1,0.1,0,0.1,0s0-0.1,0.1-0.1l0,0c0,0-0.1-0.1,0-0.1c0-0.1,0.1,0,0.1-0.1
	c0.1-0.4,0.3-0.8,0.4-1.2l0,0c0-0.1,0-0.2,0-0.4h0.1C151.6,31.9,151.7,31.3,151.8,31.3z"/>
<path class="st6" d="M156,81.1c0.3-0.6,0.1-1.3-0.5-1.6l0,0c-0.6-0.3-1.3-0.1-1.6,0.5l-1.1,2.1c-0.3,0.6-0.1,1.3,0.5,1.6l0,0
	c0.6,0.3,1.3,0.1,1.6-0.5L156,81.1z"/>
<path class="st6" d="M152.1,88.3c0.3-0.6,0.1-1.3-0.5-1.6l0,0c-0.6-0.3-1.3-0.1-1.6,0.5l-1.1,2.1c-0.3,0.6-0.1,1.3,0.5,1.6l0,0
	c0.6,0.3,1.3,0.1,1.6-0.5L152.1,88.3z"/>
<line class="st25" x1="153.5" y1="83.3" x2="151.4" y2="87.1"/>
<line class="st25" x1="155.1" y1="80.2" x2="155.1" y2="78.2"/>
<path class="st24" d="M150,89.1c0,0-0.1-2.5-0.2-3.2"/>
<linearGradient id="SVGID_6_" gradientUnits="userSpaceOnUse" x1="1285.6851" y1="-792.2255" x2="1285.6851" y2="-800.0745" gradientTransform="matrix(0.219 -0.581 -1.6234 -0.6118 -1319.616 719.2835)">
	<stop  offset="0" style="stop-color:#FFFFFF;stop-opacity:0"/>
	<stop  offset="1" style="stop-color:#FFFFFF"/>
</linearGradient>
<polygon class="st26" points="271,453 262.7,475.1 221.2,459.5 229.6,437.4 "/>
<rect x="63.1" y="351.7" transform="matrix(0.7071 -0.7071 0.7071 0.7071 -245.1185 177.2396)" class="st27" width="56.5" height="65.6"/>
<polyline class="st28" points="265.5,0.8 335.2,0.8 335.2,267.1 265.5,267.1 "/>
<polyline class="st29" points="265.5,317.9 335.2,317.9 335.2,485.1 265.5,485.1 "/>
<rect x="354.3" y="126.5" class="st18" width="116.8" height="81"/>
<text transform="matrix(1 0 0 1 354.2597 137.2349)" class="st30 st31">Climber-side rope</text>
<rect x="354.3" y="396.1" class="st18" width="116.8" height="81"/>
<text transform="matrix(1 0 0 1 354.2597 406.8011)" class="st30 st31">Brake-side rope</text>
</svg>
